<?xml version="1.0" encoding="utf-8"?>
<svg version="1.1" id="Layer_1" x="0px" y="0px" width="100%" viewBox="0 0 681 166" enable-background="new 0 0 681 166" xmlns="http://www.w3.org/2000/svg">
  <path fill="#3C3C3C" opacity="1.000000" stroke="none" d=" M212.000427,116.860260 C205.351044,116.860245 199.201508,116.860245 192.743896,116.860245 C192.743896,91.361168 192.743896,66.119301 192.743896,40.491688 C193.911453,40.379822 195.163696,40.157532 196.416290,40.155449 C211.073425,40.131081 225.730743,40.106911 240.387787,40.151119 C250.538940,40.181740 253.524857,43.126476 253.553070,53.177475 C253.600281,69.999794 253.605591,86.822479 253.551071,103.644760 C253.518280,113.762199 250.483337,116.797020 240.482132,116.849663 C231.155090,116.898766 221.827576,116.860229 212.000427,116.860260 M230.456528,55.862167 C223.037125,55.862167 215.617722,55.862167 208.141251,55.862167 C208.141251,71.309097 208.141251,86.183174 208.141251,101.221603 C218.151199,101.221603 227.881561,101.221603 237.767838,101.221603 C237.767838,86.019958 237.767838,71.030319 237.767838,55.862152 C235.414307,55.862152 233.430069,55.862152 230.456528,55.862167 z"/>
  <path fill="#393939" opacity="1.000000" stroke="none" d=" M182.182159,94.996902 C182.132202,99.821556 182.197327,104.152252 181.999359,108.470894 C181.808075,112.643585 179.402298,115.136360 175.407623,116.129265 C174.279755,116.409599 173.124664,116.767456 171.981277,116.770279 C155.207962,116.811523 138.434509,116.798653 121.406021,116.798653 C121.406021,91.273735 121.406021,66.048363 121.406021,40.462509 C122.574135,40.363346 123.836578,40.164806 125.099327,40.162922 C139.744431,40.141075 154.389618,40.126820 169.034698,40.156475 C179.260544,40.177181 182.158630,43.030243 182.176071,53.058640 C182.200089,66.871613 182.182129,80.684654 182.182159,94.996902 M166.986038,76.500137 C166.986038,69.723480 166.986038,62.946823 166.986038,56.190201 C156.556702,56.190201 146.659607,56.190201 136.967529,56.190201 C136.967529,71.421944 136.967529,86.313591 136.967529,101.170502 C147.129852,101.170502 156.875443,101.170502 166.986038,101.170502 C166.986038,93.100563 166.986038,85.300331 166.986038,76.500137 z"/>
  <path fill="#363636" opacity="1.000000" stroke="none" d=" M110.986839,50.390011 C111.004288,69.010223 111.042770,87.173676 110.988327,105.336845 C110.965149,113.069771 108.315842,116.527603 100.882011,116.683853 C84.100075,117.036568 67.305649,116.794647 50.256336,116.794647 C50.256336,91.186501 50.256336,65.946953 50.256336,40.156807 C57.304119,40.156807 64.248672,40.156708 71.193230,40.156830 C80.524857,40.156994 89.857758,40.061646 99.187714,40.186623 C107.249626,40.294617 110.102867,42.773884 110.986839,50.390011 M95.834480,75.500504 C95.834480,69.058174 95.834480,62.615837 95.834480,56.126968 C85.357407,56.126968 75.459511,56.126968 65.434135,56.126968 C65.434135,71.327980 65.434135,86.235474 65.434135,101.179878 C75.617111,101.179878 85.528763,101.179878 95.834457,101.179878 C95.834457,92.762611 95.834457,84.631432 95.834480,75.500504 z"/>
  <path fill="#373737" opacity="1.000000" stroke="none" d=" M503.032104,116.544434 C499.070038,116.544350 495.602448,116.544350 491.989899,116.544350 C491.989899,111.376556 491.989899,106.740913 491.989899,101.456497 C507.007477,101.456497 521.916626,101.456497 537.127625,101.456497 C537.127625,99.426826 537.127625,98.040199 537.127625,96.177238 C526.903076,96.177238 516.770203,96.193108 506.637421,96.165306 C504.308258,96.158913 501.952026,96.197693 499.656342,95.874252 C494.976501,95.214897 492.011810,92.677757 491.962006,87.665253 C491.899109,81.337151 491.861694,75.004158 492.042572,68.679832 C492.170441,64.208992 494.935455,61.216377 499.161224,61.151249 C516.780029,60.879707 534.405518,61.036945 552.554138,61.036945 C550.874329,66.233147 549.312256,71.065353 547.701294,76.048630 C534.174988,76.048630 520.875610,76.048630 507.295197,76.048630 C507.295197,77.675735 507.295197,79.071579 507.295197,80.581978 C507.687744,80.698792 508.145752,80.953026 508.604462,80.954269 C519.268433,80.983231 529.932739,80.935036 540.596313,81.006378 C549.906433,81.068665 552.741699,83.970528 552.839966,93.331467 C552.876709,96.830269 552.861694,100.329849 552.843079,103.828934 C552.789856,113.833130 550.188538,116.469933 540.017700,116.528023 C527.854370,116.597504 515.690369,116.544472 503.032104,116.544434 z"/>
  <path fill="#373737" opacity="1.000000" stroke="none" d=" M390.971436,116.845917 C380.983490,116.845894 371.489838,116.889076 361.996735,116.833809 C352.351990,116.777664 349.217621,113.612335 349.166138,103.870422 C349.112457,93.711090 349.090149,83.550743 349.172699,73.391800 C349.252808,63.535664 351.921936,60.872383 361.574921,60.831596 C370.878479,60.792286 380.182312,60.823090 389.941223,60.823090 C388.175781,66.190407 386.578522,71.046486 384.925018,76.073502 C378.208160,76.073502 371.741455,76.073502 364.912445,76.073502 C364.912445,84.530891 364.912445,92.718849 364.912445,101.183426 C374.844757,101.183426 384.613831,101.183426 394.930481,101.183426 C394.930481,81.039192 394.930481,60.820396 394.930481,40.378536 C400.073364,40.378536 404.678986,40.378536 409.794769,40.378536 C409.899078,41.704288 410.104675,43.118824 410.107544,44.533772 C410.147064,64.019196 409.864594,83.511047 410.286682,102.987770 C410.542480,114.792168 405.949951,116.904938 396.462494,116.847351 C394.797028,116.837242 393.131470,116.845924 390.971436,116.845917 z"/>
  <path fill="#383838" opacity="1.000000" stroke="none" d=" M459.955719,101.451431 C463.773682,101.451523 467.099915,101.451523 471.094238,101.451523 C469.578522,106.329681 468.302795,110.891449 466.656494,115.315323 C466.358459,116.116158 464.544617,116.771423 463.423584,116.782433 C452.761017,116.887138 442.092621,117.022568 431.434845,116.770775 C423.930420,116.593483 420.765778,113.561577 420.564484,106.028336 C420.257507,94.540787 420.241821,83.030998 420.588196,71.545303 C420.836823,63.299988 423.589661,60.902481 431.664825,60.847561 C444.660614,60.759174 457.657898,60.755074 470.653595,60.849110 C478.370697,60.904953 481.123352,63.527412 481.449707,71.309006 C481.672699,76.625290 481.638184,81.978706 481.280762,87.286026 C480.874786,93.314117 478.049805,95.982414 472.045959,96.077744 C461.893158,96.238960 451.735962,96.122009 441.200562,96.122009 C441.200562,91.167480 441.200562,86.305405 441.200562,81.072533 C449.340118,81.072533 457.443817,81.072533 465.843079,81.072533 C465.843079,79.324478 465.843079,77.930992 465.843079,76.271965 C456.135590,76.271965 446.363647,76.271965 436.219238,76.271965 C436.219238,84.388695 436.219238,92.595642 436.219238,101.451347 C443.951843,101.451347 451.707916,101.451347 459.955719,101.451431 z"/>
  <path fill="#353535" opacity="1.000000" stroke="none" d=" M578.170166,67.986862 C578.170105,72.456543 578.170105,76.428627 578.170105,80.328575 C586.534790,81.904495 586.536804,81.905151 588.945923,74.614006 C590.440979,70.089287 591.929138,65.562302 593.411682,61.062874 C598.485229,61.062874 603.255249,61.062874 608.561157,61.062874 C606.302429,67.839264 604.164673,74.252640 601.900574,81.045227 C608.898132,82.107986 612.081787,86.924858 614.363953,92.745010 C617.451904,100.620132 620.659546,108.448311 623.817200,116.299965 C623.255493,116.566589 623.003052,116.788544 622.746216,116.793732 C608.868713,117.073685 608.505310,117.211227 603.302490,103.652367 C601.046753,97.773880 598.212524,95.186852 591.843628,96.059677 C587.598083,96.641510 583.208313,96.170158 578.265198,96.170158 C578.265198,102.995872 578.265198,109.706497 578.265198,116.616302 C573.037170,116.616302 568.420044,116.616302 563.398926,116.616302 C563.398926,91.327354 563.398926,65.977295 563.398926,40.399887 C568.209106,40.399887 572.948975,40.399887 578.170166,40.399887 C578.170166,49.583248 578.170166,58.536255 578.170166,67.986862 z"/>
  <path fill="#534F9B" opacity="1.000000" stroke="none" d=" M282.983337,69.639107 C286.251129,66.855873 289.689178,64.711174 292.735321,62.107933 C298.715149,56.997612 303.876007,58.348389 310.403290,61.962200 C317.661713,65.980820 320.619568,70.361397 320.276520,78.892288 C319.979095,86.289001 318.264038,90.526924 311.490509,94.437469 C304.143433,98.679115 298.917786,99.056778 291.494598,94.533661 C284.965729,90.555450 281.654724,86.646545 282.897034,79.038185 C283.373169,76.122330 282.975830,73.063850 282.983337,69.639107 z"/>
  <path fill="#177BBE" opacity="1.000000" stroke="none" d=" M267.009064,78.027672 C263.537262,79.570518 261.935059,77.886902 261.850494,74.675400 C261.701660,69.020958 261.656799,63.352512 261.925110,57.706890 C261.986206,56.421497 263.221008,54.734180 264.394318,54.033192 C272.380707,49.261829 280.443817,44.610069 288.622253,40.178162 C289.887115,39.492733 292.204987,39.538761 293.468597,40.251831 C305.044525,46.784214 316.543060,53.459419 327.918396,60.334164 C329.263062,61.146816 330.364288,63.361008 330.486847,65.006798 C330.831909,69.640953 330.366913,74.333847 330.681824,78.972313 C330.946899,82.876282 329.352356,84.852493 325.127960,85.676514 C325.127960,79.805214 325.381104,74.062958 324.984161,68.365990 C324.853607,66.491951 323.488098,64.003822 321.922638,63.045101 C312.716431,57.406944 303.343933,52.028400 293.866577,46.857201 C292.370087,46.040676 289.707336,46.045498 288.180328,46.830650 C281.833466,50.093983 275.643005,53.685226 269.572449,57.442516 C268.331299,58.210724 267.219879,60.178650 267.138916,61.653393 C266.847504,66.962997 267.022430,72.298195 267.009064,78.027672 z"/>
  <path fill="#C0308A" opacity="1.000000" stroke="none" d=" M274.882904,109.075912 C271.531677,107.167534 268.610077,105.201263 265.450439,103.755058 C261.876862,102.119400 261.031067,99.705414 262.445984,95.669350 C270.736145,100.449020 278.882080,105.165146 287.048157,109.846184 C291.799866,112.570015 296.575287,117.322861 301.355682,117.342476 C306.110962,117.361984 310.909393,112.641991 315.646881,109.926918 C323.569275,105.386559 331.456512,100.784767 339.369354,96.227684 C339.625641,96.080101 340.000519,96.138573 340.493652,96.080597 C341.953674,99.763115 340.713989,101.918907 337.225220,103.837166 C326.308380,109.839676 315.521179,116.085388 304.811066,122.451042 C302.319092,123.932159 300.529053,123.859894 298.106567,122.407845 C290.556702,117.882355 282.852051,113.615044 274.882904,109.075912 z"/>
  <path fill="#85398D" opacity="1.000000" stroke="none" d=" M294.787231,108.180962 C284.799042,102.488464 275.217163,96.817528 265.433502,91.519249 C262.205292,89.771049 261.174652,87.710075 262.224182,83.920044 C263.456360,84.481285 264.619202,84.905739 265.679504,85.510155 C276.355133,91.595665 287.056732,97.637985 297.647552,103.868309 C300.313263,105.436462 302.316864,105.725594 305.187317,103.983971 C315.405884,97.783867 325.849457,91.954498 336.214325,85.995926 C337.601624,85.198387 339.025757,84.464958 340.503082,83.663765 C341.921997,87.803108 340.412903,89.809425 337.124664,91.609016 C327.217773,97.030800 317.285919,102.466537 307.803040,108.578278 C303.053619,111.639297 299.288696,111.942261 294.787231,108.180962 z"/>
  <path fill="#1E9CD6" opacity="1.000000" stroke="none" d=" M335.811218,60.722244 C334.566040,59.085434 333.510132,57.575005 332.066498,56.716705 C321.765808,50.592537 311.382721,44.606972 301.035278,38.561226 C299.641693,37.746979 298.300690,36.842739 296.878296,35.944160 C299.621155,32.903042 302.002747,32.797981 305.293182,34.788597 C315.969360,41.247337 326.823639,47.418354 337.722321,53.497593 C340.252747,54.909042 341.214203,56.508392 341.076019,59.362144 C340.850677,64.016815 340.776886,68.706474 341.091156,73.350784 C341.338104,76.999870 339.659302,78.451614 335.821045,79.239235 C335.821045,72.997162 335.821045,67.073830 335.811218,60.722244 z"/>
  <path fill="#366DB1" opacity="1.000000" stroke="none" d=" M274.890625,60.150223 C279.250824,57.658375 283.423584,55.569237 287.251953,52.972401 C290.451080,50.802395 292.911987,51.204563 295.751587,54.293617 C290.679932,57.231976 285.592468,59.888958 280.867401,63.082184 C279.313538,64.132278 277.930481,66.516190 277.797333,68.384834 C277.397675,73.992599 277.653442,79.647079 277.653442,85.615898 C273.604034,85.005219 271.766266,83.228264 272.033936,79.088158 C272.333099,74.461235 271.891815,69.785316 272.215210,65.161667 C272.331024,63.505703 273.736908,61.939964 274.890625,60.150223 z"/>
</svg>